<?xml version="1.0"?>
<svg xmlns="http://www.w3.org/2000/svg" xmlns:xlink="http://www.w3.org/1999/xlink" xmlns:svgjs="http://svgjs.com/svgjs" version="1.1" width="512px" height="512px" x="0" y="0" viewBox="0 0 512 512" style="enable-background:new 0 0 512 512" xml:space="preserve" class=""><g><g><path d="m501.963 439.782c-2.404-13.772-14.296-23.768-28.277-23.768h-13.596v-3.233c13.25-9.163 21.953-24.456 21.953-41.75v-17.163c0-25.911-19.528-47.334-44.637-50.358 4.033-15.444 6.082-31.384 6.082-47.509 0-15.992-2.016-31.803-5.984-47.129h60.94c4.012 0 7.794-1.761 10.375-4.833 2.582-3.071 3.667-7.1 2.977-11.052l-3.925-22.485c-.713-4.081-4.597-6.812-8.678-6.099-4.08.712-6.811 4.597-6.099 8.678l3.629 20.791h-130.837l9.537-54.639c1.147-6.576 6.825-11.348 13.5-11.348h13.597v2.029c0 15.872 12.913 28.785 28.785 28.785s28.785-12.913 28.785-28.785v-2.029h13.597c6.675 0 12.353 4.772 13.501 11.348.636 3.645 3.803 6.212 7.379 6.212.428 0 .862-.037 1.298-.113 4.081-.712 6.811-4.598 6.099-8.678-2.404-13.773-14.296-23.769-28.277-23.769h-13.597v-3.232c13.25-9.164 21.953-24.457 21.953-41.751v-17.164c0-27.977-22.761-50.738-50.738-50.738s-50.738 22.761-50.738 50.738v17.163c0 17.294 8.703 32.587 21.953 41.751v3.232h-13.597c-3.431 0-6.736.605-9.806 1.718-34.137-29.75-77.697-46.09-123.117-46.09-45.419 0-88.98 16.341-123.117 46.09-3.07-1.112-6.374-1.718-9.806-1.718h-13.597v-3.232c13.25-9.164 21.953-24.457 21.953-41.751v-17.163c0-27.977-22.761-50.738-50.738-50.738s-50.738 22.761-50.738 50.738v17.163c0 17.294 8.703 32.587 21.953 41.751v3.232h-13.596c-13.981 0-25.873 9.996-28.277 23.769l-9.833 56.333c-.69 3.953.395 7.981 2.977 11.052s6.363 4.833 10.375 4.833h60.94c-3.968 15.327-5.984 31.139-5.984 47.129 0 16.124 2.049 32.065 6.083 47.509-25.109 3.025-44.637 24.447-44.637 50.358v17.163c0 17.294 8.703 32.587 21.953 41.75v3.233h-13.597c-13.981 0-25.873 9.996-28.277 23.768l-9.833 56.333c-.69 3.952.395 7.98 2.977 11.052 2.581 3.073 6.363 4.834 10.374 4.834h134.28c4.012 0 7.793-1.761 10.375-4.832 2.581-3.071 3.666-7.1 2.977-11.052l-9.833-56.333c-2.403-13.772-14.295-23.768-28.276-23.768h-13.598v-3.232c7.536-5.212 13.593-12.409 17.421-20.83 30.491 28.975 69.719 46.878 111.712 50.741.234.021.465.032.696.032 3.831 0 7.102-2.922 7.459-6.814.38-4.125-2.656-7.776-6.781-8.155-41.424-3.811-79.927-22.482-108.732-52.644.108-1.348.178-2.706.178-4.08v-17.163c0-24.695-17.738-45.315-41.139-49.816-4.5-15.549-6.783-31.696-6.783-48.052 0-16.033 2.198-31.864 6.523-47.129h57.801c4.012 0 7.793-1.761 10.375-4.833 2.581-3.071 3.666-7.1 2.977-11.052l-9.833-56.333c-.861-4.933-2.944-9.378-5.9-13.056 30.982-25.899 69.956-40.087 110.546-40.087 40.592 0 79.564 14.187 110.547 40.085-2.956 3.679-5.039 8.123-5.9 13.057l-9.833 56.333c-.69 3.953.395 7.981 2.977 11.052s6.363 4.833 10.375 4.833h57.801c4.326 15.265 6.523 31.096 6.523 47.129 0 16.358-2.283 32.503-6.784 48.052-23.401 4.501-41.138 25.121-41.138 49.815v17.163c0 1.374.071 2.732.178 4.079-28.687 30.037-67.057 48.701-108.277 52.603-4.124.391-7.15 4.05-6.76 8.174.368 3.883 3.634 6.794 7.458 6.794.236 0 .476-.011.716-.034 41.774-3.955 80.85-21.85 111.216-50.699 3.828 8.422 9.885 15.621 17.422 20.834v3.232h-13.597c-13.981 0-25.874 9.996-28.277 23.768l-9.833 56.333c-.69 3.952.395 7.98 2.977 11.052 2.582 3.071 6.363 4.832 10.375 4.832h134.28c4.012 0 7.794-1.761 10.375-4.832 2.582-3.071 3.667-7.1 2.977-11.052zm-56.873-309.869c0 7.601-6.184 13.785-13.785 13.785s-13.785-6.184-13.785-13.785v-13.192c4.387 1.24 9.007 1.919 13.785 1.919s9.399-.678 13.785-1.919zm-13.785-114.913c12.239 0 23.057 6.187 29.501 15.595-32.94 22.744-56.056 18.558-64.92 15.441 2.311-17.491 17.308-31.036 35.419-31.036zm-35.738 46.529c4.289 1.082 9.699 1.938 16.118 1.938 13.984 0 32.719-4.065 54.859-18.651.323 1.928.5 3.904.5 5.923v17.163c0 19.706-16.032 35.738-35.738 35.738s-35.738-16.032-35.738-35.738v-6.373zm-301.087 371.514c0 7.601-6.184 13.785-13.785 13.785s-13.785-6.184-13.785-13.785v-13.193c4.387 1.241 9.007 1.919 13.785 1.919s9.398-.678 13.785-1.919zm28.597-2.029c6.675 0 12.353 4.772 13.5 11.348l9.537 54.638h-130.838l9.537-54.639c1.148-6.575 6.826-11.348 13.501-11.348h13.596v2.029c0 15.872 12.913 28.785 28.785 28.785s28.785-12.913 28.785-28.785v-2.029h13.597zm-6.644-59.983c0 19.706-16.032 35.738-35.738 35.738s-35.738-16.032-35.738-35.738v-6.373c4.289 1.082 9.699 1.938 16.118 1.938 13.984 0 32.719-4.065 54.858-18.651.323 1.928.5 3.904.5 5.922zm-6.236-37.307c-32.939 22.743-56.056 18.558-64.92 15.44 2.311-17.49 17.308-31.035 35.419-31.035 12.239 0 23.057 6.187 29.501 15.595zm-43.287-217.003c4.387 1.241 9.007 1.919 13.785 1.919s9.398-.678 13.785-1.919v13.192c0 7.601-6.184 13.785-13.785 13.785s-13.785-6.184-13.785-13.785zm13.785-101.721c12.239 0 23.057 6.187 29.501 15.595-32.94 22.743-56.056 18.558-64.92 15.44 2.311-17.49 17.308-31.035 35.419-31.035zm-35.738 46.529c4.289 1.082 9.699 1.938 16.118 1.938 13.984 0 32.719-4.065 54.859-18.651.323 1.928.5 3.904.5 5.923v17.163c0 19.706-16.032 35.738-35.738 35.738s-35.738-16.032-35.738-35.738v-6.373zm-29.681 132.342 9.537-54.639c1.148-6.576 6.826-11.348 13.501-11.348h13.596v2.029c0 15.872 12.913 28.785 28.785 28.785s28.785-12.913 28.785-28.785v-2.029h13.597c6.675 0 12.353 4.772 13.5 11.348l9.537 54.639zm402.244 225.979c4.387 1.24 9.007 1.919 13.785 1.919s9.399-.678 13.785-1.919v13.193c0 7.601-6.184 13.785-13.785 13.785s-13.785-6.184-13.785-13.785zm13.785-101.721c12.239 0 23.058 6.187 29.502 15.595-32.939 22.743-56.056 18.558-64.92 15.44 2.31-17.489 17.307-31.035 35.418-31.035zm-35.738 46.529c4.289 1.082 9.699 1.938 16.118 1.938 13.984 0 32.719-4.065 54.858-18.651.323 1.928.5 3.904.5 5.922v17.163c0 19.706-16.032 35.738-35.738 35.738s-35.738-16.032-35.738-35.738zm-29.681 132.342 9.537-54.639c1.147-6.575 6.825-11.348 13.5-11.348h13.597v2.029c0 15.872 12.913 28.785 28.785 28.785s28.785-12.913 28.785-28.785v-2.029h13.597c6.675 0 12.353 4.772 13.501 11.348l9.536 54.639z" fill="#ffffff" data-original="#000000" class=""/><path d="m234.276 240.216c0-4.142-3.358-7.5-7.5-7.5s-7.5 3.358-7.5 7.5c0 4.142 3.358 7.5 7.5 7.5s7.5-3.358 7.5-7.5z" fill="#ffffff" data-original="#000000" class=""/><path d="m263.5 240.216c0-4.142-3.358-7.5-7.5-7.5s-7.5 3.358-7.5 7.5c0 4.142 3.358 7.5 7.5 7.5s7.5-3.358 7.5-7.5z" fill="#ffffff" data-original="#000000" class=""/><path d="m285.224 247.716c4.142 0 7.5-3.358 7.5-7.5 0-4.142-3.358-7.5-7.5-7.5s-7.5 3.358-7.5 7.5c0 4.142 3.358 7.5 7.5 7.5z" fill="#ffffff" data-original="#000000" class=""/><path d="m283.962 317.168c.28-.485.729-.866 1.267-1.073 15.164-5.844 28.118-15.996 37.461-29.358 9.568-13.683 14.625-29.769 14.625-46.52 0-44.667-36.336-81.145-81-81.315-.103 0-.201 0-.304 0-37.528 0-70.841 26.52-79.275 63.161-.929 4.037 1.59 8.062 5.627 8.992 4.034.925 8.062-1.59 8.991-5.626 6.88-29.893 34.048-51.526 64.656-51.526h.248c36.424.139 66.057 29.888 66.057 66.315 0 27.221-17.072 52.089-42.481 61.882-3.727 1.436-6.875 4.125-8.863 7.57l-14.971 25.93-14.972-25.931c-1.989-3.445-5.143-6.136-8.879-7.577-20.932-8.074-36.247-25.947-40.97-47.811-.874-4.048-4.863-6.623-8.914-5.747-4.049.874-6.622 4.866-5.748 8.915 5.794 26.819 24.572 48.74 50.235 58.639.549.212 1.007.597 1.287 1.082l17.136 29.68c2.259 3.914 6.306 6.251 10.825 6.251h.001c4.519 0 8.565-2.336 10.825-6.25z" fill="#ffffff" data-original="#000000" class=""/></g></g></svg>
